<svg width="123" height="127" viewBox="0 0 123 127" fill="none" xmlns="http://www.w3.org/2000/svg">
<path d="M89.9474 31.485C90.8856 23.4034 85.2998 16.858 80.4801 12.7295C76.5967 9.40314 72.3604 5.80776 67.7385 4.46728C64.2952 3.46864 60.6902 2.50931 57.16 2.23628C50.0846 1.68908 43.321 1.96307 36.4623 4.44837C32.1966 5.99405 28.0738 8.04543 24.2244 10.8767C17.7276 15.655 10.8653 21.7596 7.20099 30.3506C3.12615 39.904 2.39334 50.7311 2.0599 61.3954C1.79039 70.0151 2.44035 78.3985 3.80817 86.8439C4.62465 91.8851 5.38681 96.8626 7.33433 101.402C9.136 105.601 11.126 109.428 14.12 112.406C17.4528 115.72 21.2665 117.415 25.2615 119.023C39.9373 124.931 54.9908 126.253 70.1534 122.767C73.6991 121.951 76.5131 120.305 79.7541 118.569C82.5007 117.098 85.2906 115.576 87.6213 113.162C91.4505 109.196 93.3226 103.804 94.9848 98.0366C96.5599 92.5718 96.6145 86.8369 96.6145 81.0962C96.6145 79.2335 96.61 77.3399 96.3478 75.4998C96.2436 74.7682 95.3112 74.9306 94.8662 74.857C86.8714 73.5345 78.8265 72.7977 70.835 71.4538C66.4955 70.724 61.907 69.9412 57.5304 69.9412C55.6338 69.9412 53.7304 69.6009 51.8114 69.6009" stroke="black" stroke-width="4" stroke-linecap="round"/>
<path d="M89.1474 33.1866C87.4257 26.4581 79.5942 23.6752 74.8056 26.9852C70.7819 29.7665 66.9024 33.9215 64.7901 39.3124C63.8244 41.7773 63.824 45.5321 64.1382 48.1607C64.5301 51.4392 65.9186 53.3248 67.6051 55.6478C69.9351 58.8571 73.7701 60.5308 76.8799 62.0571C79.2073 63.1995 81.9834 63.3628 83.784 60.9606C87.2997 56.2702 89.6708 51.5137 90.6882 45.0222C91.1113 42.3225 92.2238 38.4465 91.2808 35.739C90.8246 34.429 88.614 33.4552 88.614 32.1656" stroke="black" stroke-width="4" stroke-linecap="round"/>
<path d="M66.7458 35.9091C65.2254 27.5666 58.984 26.5515 53.1893 27.0797C46.4639 27.6927 44.3442 35.6343 44.3442 42.9802C44.3442 46.5833 44.995 48.8213 47.3667 51.0912C49.7332 53.3562 52.4494 53.7505 55.0857 55.2885C56.2382 55.9608 57.0863 55.988 58.3304 55.988C60.7258 55.988 63.3528 52.6423 64.0789 49.8623" stroke="black" stroke-width="4" stroke-linecap="round"/>
<path d="M75.813 41.0139C75.6052 41.3675 72.7408 46.459 74.7463 46.459C76.4233 46.459 77.8054 43.1206 78.4206 41.3542C78.5958 40.8512 77.4771 42.1478 77.3539 42.7911C77.2816 43.1685 77.0407 45.6902 77.2057 44.1902C77.3087 43.254 77.863 38.5947 76.3464 41.0139" stroke="black" stroke-width="4" stroke-linecap="round"/>
<path d="M57.9452 37.9511C56.4283 38.3448 55.1872 39.1487 54.5375 41.014C54.1737 42.0586 55.0119 42.3753 55.6635 42.3753C56.4995 42.3753 58.0535 36.5898 55.945 36.5898C54.7054 36.5898 54.6306 40.0244 55.6043 39.5771C56.8101 39.0231 56.4889 36.5631 56.345 36.9302" stroke="black" stroke-width="4" stroke-linecap="round"/>
<path d="M94.4811 100.91C97.7865 97.5551 101.195 94.7344 103.8 90.3605C107.557 84.0527 111.376 77.9997 113.208 70.2059C115.065 62.3077 116.249 53.8868 115.268 45.6461C114.984 43.2592 115.073 40.5503 114.482 38.2914" stroke="black" stroke-width="4" stroke-linecap="round"/>
<path d="M102.748 30.8043C106.836 30.8043 108.979 36.4601 112.556 38.2158C112.804 38.3372 113.436 38.9596 113.549 38.5561C113.862 37.4393 113.682 35.9815 113.682 34.8126C113.682 32.4352 113.518 30.7334 112.749 28.5734C112.123 26.8148 112.595 29.3364 112.734 30.1993C113.042 32.1132 113.338 33.9281 113.549 35.8713C113.61 36.436 113.465 41.2079 114.349 40.9573C114.72 40.8519 115.11 38.8817 115.282 38.4427C115.881 36.9161 116.447 35.5343 117.12 34.0563C117.978 32.1703 120.083 29.989 120.083 27.7415" stroke="black" stroke-width="4" stroke-linecap="round"/>
</svg>
