<svg width="8" height="13" viewBox="0 0 8 13" fill="none" xmlns="http://www.w3.org/2000/svg">
<path d="M8 6.5C7.99216 6.24352 7.8903 6.02368 7.67875 5.82582L1.58276 0.249154C1.40255 0.0879369 1.19099 0 0.932419 0C0.407444 0 0 0.38106 0 0.872041C0 1.10654 0.101861 1.32638 0.282076 1.49493L5.7669 6.5L0.282076 11.5051C0.101861 11.6736 0 11.8861 0 12.128C0 12.6189 0.407444 13 0.932419 13C1.18315 13 1.40255 12.9121 1.58276 12.7508L7.67875 7.16685C7.89814 6.97632 8 6.75648 8 6.5Z" fill="#545F68"/>
</svg>
