<svg width="782" height="97" viewBox="0 0 782 97" fill="none" xmlns="http://www.w3.org/2000/svg">
<g clip-path="url(#clip0_18_174)">
<path d="M85.2293 13.9529C84.1852 13.9529 83.155 14.007 82.1387 14.0881C91.5428 22.7182 97.4109 34.9395 97.4109 48.4933C97.4109 62.0471 91.5428 74.2752 82.1387 82.8985C83.1619 82.9864 84.1921 83.0337 85.2293 83.0337C104.866 83.0337 120.786 67.566 120.786 48.4865C120.786 29.4071 104.866 13.9393 85.2293 13.9393V13.9529Z" fill="#47A7FF"/>
<path d="M46.269 48.5001C46.269 29.7656 60.2743 14.2234 78.665 11.1866C70.4024 4.91701 60.0028 1.17688 48.7053 1.17688C21.8085 1.17688 0 22.3665 0 48.5001C0 74.6337 21.8085 95.8232 48.7053 95.8232C60.0028 95.8232 70.4024 92.0831 78.665 85.8135C60.2743 82.7767 46.269 67.2345 46.269 48.5001Z" fill="#1E2E3D"/>
<path d="M227.231 81.309C225.7 84.4472 223.5 87.0579 220.639 89.1545C217.779 91.2511 214.34 92.8135 210.316 93.8618C206.293 94.9101 201.838 95.4309 196.945 95.4309H155.527V3.92273H195.949C204.901 3.92273 211.931 6.05995 217.027 10.3276C222.122 14.5953 224.677 20.3509 224.677 27.5809V27.8447C224.677 30.4621 224.371 32.7684 223.751 34.7704C223.131 36.7791 222.303 38.5849 221.273 40.1946C220.243 41.811 219.045 43.2246 217.681 44.442C216.317 45.6661 214.855 46.7077 213.289 47.5802C218.328 49.5889 222.303 52.3078 225.199 55.7503C228.095 59.1928 229.542 63.9678 229.542 70.0616V70.3253C229.542 74.5051 228.777 78.1708 227.238 81.309H227.231ZM205.736 30.9761C205.736 27.9259 204.657 25.5993 202.499 23.9828C200.342 22.3732 197.223 21.5616 193.158 21.5616H174.217V40.9115H191.912C196.151 40.9115 199.513 40.1472 202.005 38.6255C204.497 37.1037 205.743 34.6351 205.743 31.2399V30.9761H205.736ZM210.595 67.5794C210.595 64.5291 209.474 62.1146 207.233 60.3223C204.991 58.5368 201.379 57.644 196.395 57.644H174.217V77.7785H197.021C201.26 77.7785 204.581 76.9737 206.989 75.3573C209.398 73.7476 210.602 71.2384 210.602 67.8432V67.5794H210.595Z" fill="#1E2E3D"/>
<path d="M407.358 95.431V56.4402C407.358 51.7465 406.328 48.2025 404.261 45.815C402.193 43.4275 399.235 42.2304 395.379 42.2304C391.522 42.2304 388.494 43.4275 386.295 45.815C384.095 48.2025 382.995 51.7465 382.995 56.4402V95.431H362.544V56.4402C362.544 51.7465 361.514 48.2025 359.447 45.815C357.379 43.4275 354.421 42.2304 350.564 42.2304C346.708 42.2304 343.68 43.4275 341.481 45.815C339.281 48.2025 338.181 51.7465 338.181 56.4402V95.431H317.73V25.3626H338.181V35.3792C339.344 33.8845 340.624 32.4574 342.017 31.0979C343.409 29.7385 344.954 28.5346 346.659 27.4796C348.365 26.4245 350.272 25.5926 352.374 24.9771C354.483 24.3617 356.836 24.0573 359.44 24.0573C364.194 24.0573 368.294 25.0245 371.753 26.952C375.206 28.8863 377.879 31.6458 379.758 35.2439C382.898 31.5579 386.392 28.7714 390.255 26.8844C394.112 24.9974 398.504 24.0505 403.439 24.0505C411.062 24.0505 417.027 26.2283 421.336 30.5839C425.638 34.9463 427.796 41.3512 427.796 49.7986V95.4242H407.344L407.358 95.431Z" fill="#1E2E3D"/>
<path d="M490.91 95.4309V85.455C488.397 88.742 485.369 91.4405 481.826 93.5642C478.283 95.6811 473.821 96.743 468.44 96.743C464.222 96.743 460.143 95.9584 456.196 94.3893C452.249 92.8203 448.748 90.4869 445.699 87.396C442.65 84.3052 440.207 80.511 438.369 76.0201C436.531 71.536 435.613 66.3688 435.613 60.532V60.2682C435.613 54.4315 436.531 49.2643 438.369 44.7802C440.207 40.2893 442.629 36.5018 445.636 33.4042C448.643 30.3133 452.117 27.98 456.064 26.4109C460.01 24.8418 464.138 24.0572 468.44 24.0572C473.911 24.0572 478.415 25.092 481.958 27.1684C485.501 29.2447 488.48 31.666 490.903 34.4322V0H511.354V95.4309H490.903H490.91ZM491.181 60.2682C491.181 57.3735 490.708 54.7155 489.768 52.3078C488.829 49.8933 487.569 47.8372 486.002 46.1261C484.429 44.4149 482.592 43.0961 480.489 42.1763C478.38 41.2565 476.118 40.7965 473.696 40.7965C471.273 40.7965 469.011 41.2565 466.902 42.1763C464.793 43.0961 462.934 44.4149 461.319 46.1261C459.704 47.8372 458.423 49.873 457.484 52.2469C456.544 54.6141 456.071 57.2924 456.071 60.275V60.5388C456.071 63.4335 456.544 66.0915 457.484 68.506C458.423 70.9205 459.704 72.9766 461.319 74.6877C462.934 76.3988 464.793 77.7177 466.902 78.6375C469.011 79.5573 471.273 80.0172 473.696 80.0172C476.118 80.0172 478.38 79.5573 480.489 78.6375C482.599 77.7177 484.436 76.3988 486.002 74.6877C487.569 72.9766 488.829 70.9138 489.768 68.506C490.708 66.0915 491.181 63.4403 491.181 60.5388V60.275V60.2682Z" fill="#1E2E3D"/>
<path d="M288.348 95.4309V85.455C285.835 88.742 282.807 91.4405 279.264 93.5642C275.721 95.6812 271.259 96.743 265.878 96.743C261.66 96.743 257.581 95.9585 253.634 94.3894C249.687 92.8203 246.186 90.4869 243.137 87.3961C240.088 84.3052 237.645 80.511 235.807 76.0201C233.97 71.536 233.051 66.3688 233.051 60.532V60.2682C233.051 54.4315 233.97 49.2643 235.807 44.7802C237.645 40.2893 240.067 36.5018 243.074 33.4042C246.082 30.3134 249.555 27.98 253.502 26.4109C257.449 24.8418 261.576 24.0573 265.878 24.0573C271.35 24.0573 275.853 25.092 279.396 27.1684C282.939 29.2447 285.919 31.666 288.341 34.4322V25.3626H308.792V95.4309H288.341H288.348ZM288.62 60.2682C288.62 57.3735 288.146 54.7155 287.206 52.3078C286.267 49.8933 285.007 47.8372 283.441 46.1261C281.867 44.4149 280.03 43.0961 277.928 42.1763C275.818 41.2565 273.556 40.7965 271.134 40.7965C268.711 40.7965 266.449 41.2565 264.34 42.1763C262.231 43.0961 260.372 44.4149 258.757 46.1261C257.142 47.8372 255.862 49.873 254.922 52.2469C253.982 54.6141 253.509 57.2924 253.509 60.275V60.5388C253.509 63.4335 253.982 66.0915 254.922 68.506C255.862 70.9205 257.142 72.9766 258.757 74.6877C260.372 76.3988 262.231 77.7177 264.34 78.6375C266.449 79.5573 268.711 80.0172 271.134 80.0172C273.556 80.0172 275.818 79.5573 277.928 78.6375C280.037 77.7177 281.874 76.3988 283.441 74.6877C285.007 72.9766 286.267 70.9138 287.206 68.506C288.146 66.0915 288.62 63.4403 288.62 60.5388V60.275V60.2682Z" fill="#1E2E3D"/>
<path d="M589.218 74.708C587.381 79.111 584.84 82.9661 581.589 86.2801C578.339 89.5942 574.503 92.2048 570.083 94.1256C565.663 96.0397 560.825 97.0001 555.577 97.0001C550.328 97.0001 545.615 96.0599 541.195 94.1865C536.775 92.313 532.961 89.743 529.752 86.4763C526.543 83.2096 524.016 79.3748 522.185 74.9718C520.347 70.5689 519.436 65.8413 519.436 60.7891V60.5253C519.436 55.4731 520.354 50.7455 522.185 46.3425C524.016 41.9396 526.564 38.0845 529.814 34.7704C533.065 31.4564 536.9 28.8458 541.321 26.925C545.741 25.0109 550.572 24.0505 555.827 24.0505C561.083 24.0505 565.788 24.9906 570.208 26.8641C574.628 28.7375 578.443 31.3076 581.652 34.5743C584.861 37.841 587.381 41.6758 589.218 46.0788C591.049 50.4817 591.968 55.2093 591.968 60.2615V60.5253C591.968 65.5843 591.049 70.3119 589.218 74.708ZM573.208 60.5253C573.208 57.9079 572.791 55.4528 571.955 53.1397C571.12 50.8334 569.909 48.7841 568.329 46.9986C566.742 45.2131 564.869 43.7928 562.697 42.7512C560.526 41.7029 558.152 41.1821 555.57 41.1821C552.82 41.1821 550.377 41.6826 548.254 42.6836C546.131 43.6845 544.314 45.0575 542.81 46.8025C541.307 48.5474 540.165 50.5764 539.372 52.8827C538.578 55.1958 538.181 57.6576 538.181 60.2683V60.5321C538.181 63.1495 538.599 65.6113 539.434 67.9176C540.27 70.2307 541.474 72.28 543.061 74.0655C544.641 75.851 546.5 77.2714 548.623 78.3129C550.746 79.3612 553.147 79.882 555.813 79.882C558.479 79.882 561.006 79.3815 563.129 78.3805C565.252 77.3796 567.069 76.0066 568.572 74.2617C570.076 72.5167 571.218 70.4945 572.011 68.1814C572.805 65.8751 573.201 63.4065 573.201 60.7958V60.5321L573.208 60.5253Z" fill="#1E2E3D"/>
<path d="M779.251 74.708C777.413 79.111 774.872 82.9661 771.622 86.2801C768.371 89.5942 764.535 92.2048 760.115 94.1256C755.695 96.0397 750.857 97.0001 745.609 97.0001C740.36 97.0001 735.648 96.0599 731.228 94.1865C726.807 92.313 722.993 89.743 719.784 86.4763C716.575 83.2096 714.048 79.3748 712.217 74.9718C710.38 70.5689 709.468 65.8413 709.468 60.7891V60.5253C709.468 55.4731 710.387 50.7455 712.217 46.3425C714.048 41.9396 716.596 38.0845 719.846 34.7704C723.097 31.4564 726.933 28.8458 731.353 26.925C735.773 25.0109 740.604 24.0505 745.859 24.0505C751.115 24.0505 755.82 24.9906 760.241 26.8641C764.661 28.7375 768.475 31.3076 771.684 34.5743C774.893 37.841 777.413 41.6758 779.251 46.0788C781.081 50.4817 782 55.2093 782 60.2615V60.5253C782 65.5843 781.081 70.3119 779.251 74.708V74.708ZM763.241 60.5253C763.241 57.9079 762.823 55.4528 761.988 53.1397C761.152 50.8334 759.941 48.7841 758.361 46.9986C756.774 45.2131 754.901 43.7928 752.73 42.7512C750.558 41.7029 748.184 41.1821 745.602 41.1821C742.852 41.1821 740.409 41.6826 738.286 42.6836C736.163 43.6845 734.346 45.0575 732.842 46.8025C731.339 48.5474 730.197 50.5764 729.404 52.8827C728.61 55.1958 728.213 57.6576 728.213 60.2683V60.5321C728.213 63.1495 728.631 65.6113 729.466 67.9176C730.302 70.2307 731.506 72.28 733.093 74.0655C734.673 75.851 736.532 77.2714 738.655 78.3129C740.778 79.3612 743.179 79.882 745.845 79.882C748.511 79.882 751.038 79.3815 753.161 78.3805C755.284 77.3796 757.101 76.0066 758.605 74.2617C760.108 72.5167 761.25 70.4945 762.043 68.1814C762.837 65.8751 763.234 63.4065 763.234 60.7958V60.5321L763.241 60.5253Z" fill="#1E2E3D"/>
<path d="M600.217 95.4309V0H620.668V95.4309H600.217Z" fill="#1E2E3D"/>
<path d="M630.796 17.6456V0H652.326V17.6456H630.796ZM631.332 95.4309V25.3626H651.783V95.4309H631.332Z" fill="#1E2E3D"/>
<path d="M703.892 44.841C697.077 44.841 691.718 46.8498 687.812 50.8537C683.907 54.8643 681.958 61.0934 681.958 69.5476V95.4309H661.507V25.3626H681.958V39.4777C684.019 34.6825 686.845 30.8477 690.437 27.9732C694.022 25.0988 698.866 23.7935 704.964 24.0505V44.8343H703.885L703.892 44.841Z" fill="#1E2E3D"/>
</g>
<defs>
<clipPath id="clip0_18_174">
<rect width="782" height="97" fill="white"/>
</clipPath>
</defs>
</svg>
