<svg width="1156" height="142" viewBox="0 0 1156 142" fill="none" xmlns="http://www.w3.org/2000/svg">
<g clip-path="url(#clip0_712_2187)">
<path d="M125.991 20.4256C124.447 20.4256 122.924 20.5048 121.422 20.6236C135.324 33.2572 143.998 51.1483 143.998 70.9899C143.998 90.8315 135.324 108.733 121.422 121.356C122.935 121.485 124.458 121.554 125.991 121.554C155.019 121.554 178.552 98.9107 178.552 70.98C178.552 43.0493 155.019 20.4058 125.991 20.4058V20.4256Z" fill="url(#paint0_linear_712_2187)"/>
<path d="M68.3977 70.9999C68.3977 43.5741 89.1012 20.8217 116.287 16.3761C104.073 7.1979 88.6999 1.72266 71.9992 1.72266C32.2386 1.72266 0 32.7425 0 70.9999C0 109.257 32.2386 140.277 71.9992 140.277C88.6999 140.277 104.073 134.802 116.287 125.624C89.1012 121.178 68.3977 98.4256 68.3977 70.9999V70.9999Z" fill="#1E2E3D"/>
<path d="M335.907 119.03C333.643 123.624 330.392 127.446 326.162 130.515C321.933 133.584 316.85 135.871 310.902 137.406C304.955 138.941 298.369 139.703 291.135 139.703H229.91V5.74268H289.664C302.897 5.74268 313.29 8.87139 320.822 15.1189C328.354 21.3664 332.131 29.7922 332.131 40.3763V40.7625C332.131 44.5942 331.678 47.9704 330.762 50.9011C329.846 53.8417 328.622 56.4853 327.099 58.8417C325.576 61.208 323.806 63.2773 321.789 65.0595C319.772 66.8516 317.611 68.3763 315.296 69.6536C322.746 72.5942 328.622 76.5744 332.902 81.614C337.183 86.6536 339.323 93.6437 339.323 102.564V102.951C339.323 109.069 338.191 114.436 335.917 119.03H335.907ZM304.131 45.3466C304.131 40.8813 302.536 37.4753 299.347 35.109C296.157 32.7526 291.547 31.5645 285.537 31.5645H257.538V59.8912H283.695C289.962 59.8912 294.932 58.7724 298.616 56.5447C302.3 54.3169 304.142 50.7031 304.142 45.7328V45.3466H304.131ZM311.314 98.9308C311.314 94.4654 309.657 90.9308 306.344 88.307C303.03 85.6932 297.69 84.3862 290.322 84.3862H257.538V113.861H291.248C297.515 113.861 302.423 112.683 305.984 110.317C309.544 107.96 311.324 104.287 311.324 99.3169V98.9308H311.314Z" fill="#1E2E3D"/>
<path d="M602.182 139.703V82.6238C602.182 75.7526 600.659 70.5644 597.602 67.0694C594.546 63.5743 590.173 61.8219 584.472 61.8219C578.772 61.8219 574.296 63.5743 571.044 67.0694C567.792 70.5644 566.166 75.7526 566.166 82.6238V139.703H535.934V82.6238C535.934 75.7526 534.412 70.5644 531.355 67.0694C528.299 63.5743 523.926 61.8219 518.225 61.8219C512.525 61.8219 508.049 63.5743 504.797 67.0694C501.545 70.5644 499.919 75.7526 499.919 82.6238V139.703H469.687V37.1288H499.919V51.7922C501.638 49.604 503.531 47.5149 505.589 45.5248C507.647 43.5347 509.932 41.7724 512.453 40.2278C514.974 38.6833 517.793 37.4654 520.901 36.5644C524.019 35.6635 527.497 35.2179 531.345 35.2179C538.373 35.2179 544.434 36.6337 549.548 39.4555C554.652 42.2872 558.603 46.3268 561.382 51.5941C566.022 46.1981 571.188 42.1189 576.899 39.3565C582.6 36.5941 589.093 35.208 596.388 35.208C607.656 35.208 616.474 38.3961 622.844 44.7724C629.203 51.1585 632.393 60.5347 632.393 72.9011V139.693H602.161L602.182 139.703Z" fill="#1E2E3D"/>
<path d="M725.693 139.703V125.099C721.978 129.911 717.502 133.861 712.264 136.97C707.026 140.069 700.431 141.624 692.476 141.624C686.241 141.624 680.211 140.475 674.376 138.178C668.542 135.881 663.366 132.465 658.859 127.941C654.352 123.416 650.74 117.861 648.024 111.287C645.307 104.723 643.949 97.1584 643.949 88.6139V88.2277C643.949 79.6832 645.307 72.1188 648.024 65.5545C650.74 58.9802 654.321 53.4357 658.766 48.901C663.212 44.3762 668.346 40.9604 674.181 38.6634C680.015 36.3663 686.117 35.2178 692.476 35.2178C700.564 35.2178 707.222 36.7327 712.46 39.7723C717.697 42.8119 722.101 46.3564 725.682 50.4059V0H755.914V139.703H725.682H725.693ZM726.094 88.2277C726.094 83.9901 725.394 80.099 724.005 76.5743C722.616 73.0396 720.753 70.0297 718.438 67.5248C716.113 65.0198 713.396 63.0891 710.288 61.7426C707.171 60.3961 703.826 59.7228 700.245 59.7228C696.664 59.7228 693.32 60.3961 690.202 61.7426C687.084 63.0891 684.337 65.0198 681.95 67.5248C679.562 70.0297 677.669 73.0099 676.28 76.4852C674.891 79.9505 674.191 83.8713 674.191 88.2376V88.6238C674.191 92.8614 674.891 96.7525 676.28 100.287C677.669 103.822 679.562 106.832 681.95 109.337C684.337 111.842 687.084 113.772 690.202 115.119C693.32 116.465 696.664 117.139 700.245 117.139C703.826 117.139 707.171 116.465 710.288 115.119C713.406 113.772 716.123 111.842 718.438 109.337C720.753 106.832 722.616 103.812 724.005 100.287C725.394 96.7525 726.094 92.8713 726.094 88.6238V88.2376V88.2277Z" fill="#1E2E3D"/>
<path d="M426.253 139.703V125.099C422.539 129.911 418.062 133.861 412.825 136.97C407.587 140.069 400.991 141.624 393.037 141.624C386.801 141.624 380.771 140.475 374.937 138.178C369.103 135.881 363.927 132.465 359.42 127.941C354.913 123.416 351.301 117.861 348.584 111.287C345.868 104.723 344.509 97.1584 344.509 88.6138V88.2277C344.509 79.6831 345.868 72.1188 348.584 65.5544C351.301 58.9801 354.882 53.4356 359.327 48.9009C363.772 44.3762 368.907 40.9603 374.741 38.6633C380.576 36.3663 386.678 35.2178 393.037 35.2178C401.125 35.2178 407.783 36.7326 413.02 39.7722C418.258 42.8118 422.662 46.3564 426.243 50.4059V37.1287H456.475V139.703H426.243H426.253ZM426.655 88.2277C426.655 83.99 425.955 80.099 424.566 76.5742C423.177 73.0396 421.314 70.0296 418.999 67.5247C416.673 65.0197 413.957 63.0891 410.849 61.7425C407.731 60.396 404.387 59.7227 400.806 59.7227C397.225 59.7227 393.881 60.396 390.763 61.7425C387.645 63.0891 384.898 65.0197 382.51 67.5247C380.123 70.0296 378.23 73.0099 376.841 76.4851C375.451 79.9504 374.752 83.8712 374.752 88.2376V88.6237C374.752 92.8613 375.451 96.7524 376.841 100.287C378.23 103.822 380.123 106.832 382.51 109.337C384.898 111.842 387.645 113.772 390.763 115.119C393.881 116.465 397.225 117.139 400.806 117.139C404.387 117.139 407.731 116.465 410.849 115.119C413.967 113.772 416.684 111.842 418.999 109.337C421.314 106.832 423.177 103.812 424.566 100.287C425.955 96.7524 426.655 92.8712 426.655 88.6237V88.2376V88.2277Z" fill="#1E2E3D"/>
<path d="M871.018 109.366C868.302 115.812 864.546 121.456 859.74 126.307C854.935 131.158 849.265 134.98 842.731 137.792C836.197 140.594 829.045 142 821.287 142C813.528 142 806.562 140.624 800.027 137.881C793.493 135.139 787.854 131.376 783.111 126.594C778.367 121.812 774.632 116.198 771.925 109.753C769.209 103.307 767.861 96.3862 767.861 88.9902V88.604C767.861 81.208 769.219 74.2872 771.925 67.8417C774.632 61.3961 778.398 55.7526 783.203 50.9011C788.009 46.0496 793.678 42.2278 800.213 39.4159C806.747 36.6139 813.888 35.208 821.657 35.208C829.426 35.208 836.382 36.5842 842.916 39.3268C849.45 42.0694 855.089 45.8318 859.833 50.6139C864.577 55.3961 868.302 61.01 871.018 67.4555C873.724 73.9011 875.083 80.8219 875.083 88.2179V88.604C875.083 96.01 873.724 102.931 871.018 109.366ZM847.351 88.604C847.351 84.7724 846.734 81.1783 845.499 77.7922C844.264 74.4159 842.474 71.4159 840.138 68.8021C837.792 66.1882 835.024 64.109 831.813 62.5842C828.603 61.0496 825.094 60.2872 821.276 60.2872C817.212 60.2872 813.6 61.0199 810.461 62.4852C807.323 63.9506 804.637 65.9605 802.415 68.5149C800.192 71.0694 798.504 74.0397 797.331 77.4159C796.158 80.8021 795.572 84.406 795.572 88.2278V88.614C795.572 92.4456 796.189 96.0496 797.424 99.4258C798.659 102.812 800.439 105.812 802.785 108.426C805.121 111.04 807.868 113.119 811.007 114.644C814.145 116.178 817.695 116.941 821.636 116.941C825.577 116.941 829.313 116.208 832.451 114.743C835.59 113.277 838.275 111.267 840.498 108.713C842.721 106.159 844.408 103.198 845.581 99.812C846.754 96.4357 847.341 92.8219 847.341 89.0001V88.614L847.351 88.604Z" fill="#1E2E3D"/>
<path d="M1151.94 109.366C1149.22 115.812 1145.46 121.456 1140.66 126.307C1135.85 131.159 1130.18 134.98 1123.65 137.792C1117.11 140.594 1109.96 142 1102.2 142C1094.45 142 1087.48 140.624 1080.94 137.881C1074.41 135.139 1068.77 131.376 1064.03 126.594C1059.28 121.812 1055.55 116.198 1052.84 109.753C1050.13 103.307 1048.78 96.3862 1048.78 88.9902V88.604C1048.78 81.208 1050.14 74.2872 1052.84 67.8417C1055.55 61.3961 1059.32 55.7526 1064.12 50.9011C1068.93 46.0496 1074.6 42.2278 1081.13 39.4159C1087.66 36.6139 1094.81 35.208 1102.57 35.208C1110.34 35.208 1117.3 36.5842 1123.83 39.3268C1130.37 42.0694 1136.01 45.8318 1140.75 50.6139C1145.49 55.3961 1149.22 61.01 1151.94 67.4555C1154.64 73.9011 1156 80.8219 1156 88.2179V88.604C1156 96.01 1154.64 102.931 1151.94 109.366V109.366ZM1128.27 88.604C1128.27 84.7724 1127.65 81.1783 1126.42 77.7922C1125.18 74.4159 1123.39 71.4159 1121.06 68.8021C1118.71 66.1882 1115.94 64.109 1112.73 62.5842C1109.52 61.0496 1106.01 60.2872 1102.19 60.2872C1098.13 60.2872 1094.52 61.0199 1091.38 62.4852C1088.24 63.9506 1085.55 65.9605 1083.33 68.5149C1081.11 71.0694 1079.42 74.0397 1078.25 77.4159C1077.08 80.8021 1076.49 84.406 1076.49 88.2278V88.614C1076.49 92.4456 1077.11 96.0496 1078.34 99.4258C1079.58 102.812 1081.36 105.812 1083.7 108.426C1086.04 111.04 1088.79 113.119 1091.92 114.644C1095.06 116.178 1098.61 116.941 1102.55 116.941C1106.49 116.941 1110.23 116.208 1113.37 114.743C1116.51 113.277 1119.19 111.267 1121.42 108.713C1123.64 106.159 1125.33 103.198 1126.5 99.812C1127.67 96.4357 1128.26 92.8219 1128.26 89.0001V88.614L1128.27 88.604Z" fill="#1E2E3D"/>
<path d="M887.276 139.703V0H917.508V139.703H887.276Z" fill="#1E2E3D"/>
<path d="M932.48 25.8317V0H964.307V25.8317H932.48ZM933.273 139.703V37.1287H963.505V139.703H933.273Z" fill="#1E2E3D"/>
<path d="M1040.54 65.6437C1030.46 65.6437 1022.54 68.5843 1016.77 74.4457C1010.99 80.3169 1008.11 89.4358 1008.11 101.812V139.703H977.88V37.1288H1008.11V57.7922C1011.16 50.7724 1015.34 45.1585 1020.65 40.9506C1025.94 36.7427 1033.11 34.8318 1042.12 35.208V65.6338H1040.53L1040.54 65.6437Z" fill="#1E2E3D"/>
</g>
<defs>
<linearGradient id="paint0_linear_712_2187" x1="121.835" y1="121.183" x2="157.262" y2="31.1605" gradientUnits="userSpaceOnUse">
<stop offset="0.25" stop-color="#A1C4FD"/>
<stop offset="1" stop-color="#C2E9FB"/>
</linearGradient>
<clipPath id="clip0_712_2187">
<rect width="1156" height="142" fill="white"/>
</clipPath>
</defs>
</svg>
