<svg width="308" height="177" viewBox="0 0 308 177" fill="none" xmlns="http://www.w3.org/2000/svg">
<path d="M136.231 17.2399C132.044 12.4092 127.869 6.55345 121.515 4.56799C109.483 0.807889 94.7574 2.12577 82.396 2.68765C66.1111 3.42787 50.4495 7.76501 36.9817 17.2399C29.6845 22.3735 23.8244 29.7478 18.26 36.6156C13.3823 42.6358 8.27475 49.3816 6.03778 56.9314C-3.39283 88.7597 3.65947 124.494 27.5799 148.046C44.2773 164.487 69.2035 174.247 92.6561 167.667C106.498 163.784 119.593 156.127 130.917 147.392C139.422 140.832 148.367 132.252 150.497 121.272C151.863 114.229 155.145 100.531 151.315 93.7207C149.693 90.8382 147.188 90.6377 144.079 90.0827C134.393 88.3529 123.999 89.3256 114.239 89.9191C106.359 90.3983 97.2719 90.0676 89.8765 93.0258" stroke="#1E2E3D" stroke-width="3" stroke-linecap="round"/>
<path d="M74.4251 38.5776C70.3423 42.0071 65.3149 45.2053 63.4292 50.391C61.4296 55.8899 61.0166 62.2489 64.3284 67.3141C67.2955 71.852 72.0941 78.1945 77.9405 78.8823C82.8356 79.4582 89.97 76.6584 92.0839 71.9332C94.4274 66.6948 93.977 60.5594 95.3541 55.051C96.3191 51.191 94.5001 48.5774 92.043 45.6084C88.7295 41.6046 82.7283 37.8418 77.3682 37.8418" stroke="#1E2E3D" stroke-width="3" stroke-linecap="round"/>
<path d="M128.873 34.8984C116.028 36.6501 115.476 51.018 115.629 60.8144C115.825 73.3674 130.017 75.5862 140.237 76.0616C152.434 76.6288 155.168 63.8925 154.585 53.988C153.996 43.9686 141.655 40.0489 133.288 40.0489" stroke="#1E2E3D" stroke-width="3" stroke-linecap="round"/>
<path d="M90.563 54.843C85.4664 59.1099 83.5052 64.9808 83.2346 71.6099C83.0981 74.9547 85.2918 75.1092 87.3412 72.7671C90.4155 69.2536 91.4956 65.3707 92.8319 60.969C93.013 60.3723 93.9417 53.6825 92.8319 53.7994C91.5052 53.939 90.1528 57.8798 89.837 58.7455C88.8024 61.5815 88.521 64.285 88.521 67.2537C88.521 69.7085 88.8348 68.2107 89.2471 66.5958C89.8368 64.2861 89.7462 61.9245 89.7462 59.5623C89.7462 59.0165 89.9769 56.1348 89.3151 58.0648C88.1692 61.4072 86.9304 65.122 86.5698 68.6377C86.5351 68.9761 86.3237 73.189 86.9328 72.4494C87.8145 71.3789 88.2211 69.909 88.9294 68.7285" stroke="#1E2E3D" stroke-width="3" stroke-linecap="round"/>
<path d="M148.147 54.8428C145.361 58.8597 141.982 65.271 145.106 70.1803C145.761 71.2084 146.562 71.2657 147.738 71.1786C150.791 70.9525 151.234 67.3558 151.731 65.0073C152.247 62.5744 152.401 60.1283 152.026 57.6562C151.552 54.5271 148.037 62.707 147.806 63.1922C146.454 66.0328 145.288 69.1138 145.288 72.313C145.288 72.3573 145.676 73.9881 146.014 73.5382C147.053 72.1522 146.751 68.0573 146.921 66.4594C147.293 62.9695 148.409 52.6836 147.08 55.9318C146.314 57.8053 144.442 68.3266 148.056 68.7282C150.808 69.0341 150.189 60.4329 150.189 58.541C150.189 56.745 149.21 59.0442 149.054 59.6074C148.463 61.744 148.147 64.0586 148.147 66.2778" stroke="#1E2E3D" stroke-width="3" stroke-linecap="round"/>
<path d="M99.9561 92.8236C100.863 93.6173 100.588 96.7754 100.682 97.9059C100.85 99.9194 100.883 101.998 101.272 103.986C101.418 104.732 101.591 105.064 102.361 105.075C106.661 105.142 111.026 105.149 115.294 104.576C116.007 104.481 119.905 104.424 119.967 103.26C120.065 101.457 120.028 99.5565 119.786 97.7697C119.549 96.0201 119.543 93.0852 117.925 92.0068" stroke="#1E2E3D" stroke-width="3" stroke-linecap="round"/>
<path d="M122.826 90.7814C123.255 91.2102 123.194 92.006 123.257 92.5511C123.49 94.5708 124.051 96.3988 124.641 98.3367C125.098 99.8376 125.054 102.306 125.776 103.669C126.112 104.303 129.346 103.829 129.814 103.759C132.761 103.323 135.516 101.586 138.391 100.764C143.31 99.359 139.549 91.5119 138.754 88.3311" stroke="#1E2E3D" stroke-width="3" stroke-linecap="round"/>
<path d="M186.264 133.494C184.213 131.916 180.607 130.491 178.007 131.614C175.204 132.824 172.751 135.639 170.445 137.541C167.087 140.31 163.427 143.168 160.962 146.82C150.939 161.669 167.737 167.761 179.929 166.073C188.397 164.9 188.602 158.106 189.208 150.989C189.667 145.593 190.8 140.235 190.679 134.802C190.665 134.184 189.905 132.326 190.843 133.331C193.533 136.213 195.621 139.714 198.119 142.773C202.619 148.286 207.622 153.148 211.281 159.247" stroke="#1E2E3D" stroke-width="3" stroke-linecap="round"/>
<path d="M246.599 100.384C245.035 115.439 245.62 130.902 246.027 146.003C246.193 152.163 246.005 158.672 247.376 164.724C247.946 167.242 248.864 168.528 247.335 169.548" stroke="#1E2E3D" stroke-width="3" stroke-linecap="round"/>
<path d="M225.261 133.494C226.48 131.665 232.67 131.071 234.908 130.714C241.028 129.739 247.105 129.079 253.303 129.079C258.181 129.079 263.059 129.079 267.937 129.079" stroke="#1E2E3D" stroke-width="3" stroke-linecap="round"/>
<path d="M296.632 118.778C296.632 137.741 298.104 156.459 298.104 175.434" stroke="#1E2E3D" stroke-width="3" stroke-linecap="round"/>
<path d="M170.9 144.091C170.384 144.452 169.407 146.649 170.434 146.757C171.49 146.868 171.509 146.319 172.243 145.844C173.108 145.283 171.965 143.639 171.572 144.426" stroke="#1E2E3D" stroke-width="3" stroke-linecap="round"/>
<path d="M181.64 144.091C180.216 144.091 180.326 146.292 181.64 146.292C182.01 146.292 182.488 142.653 181.305 144.427" stroke="#1E2E3D" stroke-width="3" stroke-linecap="round"/>
<path d="M296.225 109.829C293.807 109.829 291.508 108.574 289.572 107.068C287.338 105.331 287.068 104.272 286.066 101.409C284.683 97.4576 288.753 92.7091 291.753 90.6692C294.495 88.8044 298.506 89.08 301.195 90.5587C306.025 93.2154 307.572 101.629 304.425 105.826C303.256 107.384 301.374 107.921 299.594 108.449C298.653 108.727 297.168 108.579 296.722 109.581C296.33 110.463 295.564 110.326 294.735 110.326" stroke="#1E2E3D" stroke-width="3" stroke-linecap="round"/>
<path d="M292.954 98.6074H292.829" stroke="#1E2E3D" stroke-width="3" stroke-linecap="round"/>
<path d="M298.994 98.3564C298.994 98.6446 299.117 98.6081 299.371 98.6081" stroke="#1E2E3D" stroke-width="3" stroke-linecap="round"/>
</svg>
