<svg width="75" height="75" viewBox="0 0 75 75" fill="none" xmlns="http://www.w3.org/2000/svg">
<path d="M34.7498 62.7292H68.9172C73.4351 62.7292 74.9997 61.3676 74.9997 58.8471C74.9997 51.7956 66.0531 42.0978 51.8335 42.0978C37.6363 42.0978 28.6899 51.7956 28.6899 58.8471C28.6899 61.3676 30.2544 62.7292 34.7498 62.7292ZM51.8559 37.2312C57.8248 37.2312 62.8904 31.9195 62.8904 25.0528C62.8904 18.3127 57.7925 13.1836 51.8559 13.1836C45.8969 13.1836 40.7717 18.4075 40.7991 25.1027C40.8089 31.9195 45.8647 37.2312 51.8559 37.2312Z" fill="#545F68"/>
<path d="M5.05563 62.7351H25.5967C22.6772 58.5421 25.8867 50.2448 32.0583 45.4238C29.0331 43.4745 25.1088 42.0214 20.1639 42.0214C7.91645 42.0214 0 51.0594 0 58.5082C0 61.2018 1.36271 62.7351 5.05563 62.7351ZM20.1639 37.8576C25.378 37.8576 29.7857 33.2087 29.7857 27.2514C29.7857 21.3833 25.3455 16.917 20.1639 16.917C15.0096 16.917 10.5196 21.4732 10.5471 27.2963C10.552 33.2087 14.9723 37.8576 20.1639 37.8576Z" fill="#919AA3"/>
</svg>
